<?xml version="1.0" encoding="UTF-8"?>
<svg xmlns="http://www.w3.org/2000/svg" xmlns:xlink="http://www.w3.org/1999/xlink" width="32px" height="px" viewBox="0 0 32 36" version="1.1">
<g id="surface1">
<path style=" stroke:none;fill-rule:nonzero;fill:rgb(10.588235%,45.098039%,72.941176%);fill-opacity:1;" d="M 2.679688 32.230469 L 0 0.0585938 L 32 0.125 L 29.167969 32.230469 L 16.121094 35.941406 Z M 2.679688 32.230469 "/>
<path style=" stroke:none;fill-rule:nonzero;fill:rgb(10.980392%,53.333333%,78.039216%);fill-opacity:1;" d="M 16.121094 32.832031 L 16.121094 3.125 L 29.296875 3.167969 L 26.949219 29.746094 Z M 16.121094 32.832031 "/>
<path style=" stroke:none;fill-rule:nonzero;fill:rgb(100%,100%,100%);fill-opacity:1;" d="M 26.027344 6.921875 L 5.753906 6.921875 L 6.304688 10.804688 L 15.921875 10.804688 L 6.457031 14.796875 L 7.007812 18.550781 L 20.953125 18.550781 L 20.449219 23.792969 L 15.726562 24.699219 L 11.441406 23.621094 L 11.113281 20.644531 L 7.183594 20.644531 L 7.707031 26.835938 L 16.144531 29.144531 L 24.226562 26.621094 L 25.257812 14.515625 L 16.714844 14.515625 L 26.027344 10.71875 Z M 26.027344 6.921875 "/>
</g>
</svg>
