<?xml version="1.0" encoding="UTF-8"?>
<svg xmlns="http://www.w3.org/2000/svg" xmlns:xlink="http://www.w3.org/1999/xlink" width="32px" height="px" viewBox="0 0 32 32" version="1.1">
<g id="surface1">
<path style=" stroke:none;fill-rule:nonzero;fill:rgb(87.058824%,29.803922%,21.176471%);fill-opacity:1;" d="M 31.398438 14.574219 L 17.425781 0.605469 C 16.621094 -0.203125 15.316406 -0.203125 14.511719 0.605469 L 11.609375 3.503906 L 15.289062 7.183594 C 16.144531 6.894531 17.125 7.089844 17.808594 7.773438 C 18.492188 8.457031 18.683594 9.445312 18.390625 10.304688 L 21.9375 13.851562 C 22.792969 13.554688 23.785156 13.746094 24.46875 14.433594 C 25.425781 15.390625 25.425781 16.945312 24.46875 17.902344 C 23.511719 18.859375 21.960938 18.859375 21 17.902344 C 20.28125 17.179688 20.101562 16.121094 20.46875 15.234375 L 17.160156 11.925781 L 17.160156 20.632812 C 17.390625 20.746094 17.613281 20.902344 17.808594 21.09375 C 18.765625 22.054688 18.765625 23.605469 17.808594 24.5625 C 16.847656 25.519531 15.296875 25.519531 14.339844 24.5625 C 13.382812 23.605469 13.382812 22.054688 14.339844 21.09375 C 14.578125 20.859375 14.851562 20.679688 15.144531 20.558594 L 15.144531 11.773438 C 14.851562 11.65625 14.578125 11.476562 14.339844 11.238281 C 13.613281 10.515625 13.441406 9.449219 13.8125 8.558594 L 10.183594 4.929688 L 0.605469 14.507812 C -0.203125 15.316406 -0.203125 16.621094 0.605469 17.425781 L 14.574219 31.394531 C 15.378906 32.199219 16.683594 32.199219 17.488281 31.394531 L 31.398438 17.488281 C 32.203125 16.683594 32.203125 15.378906 31.398438 14.574219 "/>
</g>
</svg>
