<?xml version="1.0" encoding="UTF-8"?>
<svg xmlns="http://www.w3.org/2000/svg" xmlns:xlink="http://www.w3.org/1999/xlink" width="32px" height="px" viewBox="0 0 32 32" version="1.1">
<g id="surface1">
<path style=" stroke:none;fill-rule:nonzero;fill:rgb(89.019608%,30.588235%,14.901961%);fill-opacity:1;" d="M 5.644531 27.496094 L 3.339844 1.632812 L 28.660156 1.632812 L 26.351562 27.496094 L 15.992188 30.367188 Z M 5.644531 27.496094 "/>
<path style=" stroke:none;fill-rule:nonzero;fill:rgb(93.72549%,40%,16.470588%);fill-opacity:1;" d="M 16 3.746094 L 16 28.171875 L 24.378906 25.847656 L 26.351562 3.746094 Z M 16 3.746094 "/>
<path style=" stroke:none;fill-rule:nonzero;fill:rgb(100%,100%,100%);fill-opacity:1;" d="M 8.054688 6.917969 L 8.910156 16.511719 L 19.90625 16.511719 L 19.535156 20.625 L 15.996094 21.582031 L 12.460938 20.625 L 12.226562 17.984375 L 9.042969 17.984375 L 9.496094 23.078125 L 15.996094 24.882812 L 22.5 23.078125 L 23.371094 13.339844 L 11.8125 13.339844 L 11.519531 10.089844 L 23.660156 10.089844 L 23.945312 6.917969 Z M 8.054688 6.917969 "/>
<path style=" stroke:none;fill-rule:nonzero;fill:rgb(92.156863%,92.156863%,92.156863%);fill-opacity:1;" d="M 16 6.917969 L 8.054688 6.917969 L 8.910156 16.511719 L 16 16.511719 L 16 13.339844 L 11.8125 13.339844 L 11.519531 10.089844 L 16 10.089844 Z M 16 6.917969 "/>
<path style=" stroke:none;fill-rule:nonzero;fill:rgb(92.156863%,92.156863%,92.156863%);fill-opacity:1;" d="M 16 21.582031 L 15.996094 21.582031 L 12.460938 20.625 L 12.226562 17.984375 L 9.042969 17.984375 L 9.496094 23.078125 L 15.996094 24.882812 L 16 24.878906 Z M 16 21.582031 "/>
</g>
</svg>
