<?xml version="1.0" encoding="UTF-8"?>
<svg xmlns="http://www.w3.org/2000/svg" xmlns:xlink="http://www.w3.org/1999/xlink" width="32px" height="px" viewBox="0 0 32 47" version="1.1">
<defs>
<linearGradient id="linear0" gradientUnits="userSpaceOnUse" x1="0.553421" y1="0" x2="0.428169" y2="0.428629" gradientTransform="matrix(17.057658,-13.090295,13.838963,17.398583,-5.526435,13.132965)">
<stop offset="0" style="stop-color:rgb(32.156863%,80.784314%,38.823529%);stop-opacity:1;"/>
<stop offset="1" style="stop-color:rgb(31.764706%,63.529412%,33.72549%);stop-opacity:1;"/>
</linearGradient>
<linearGradient id="linear1" gradientUnits="userSpaceOnUse" x1="0.553486" y1="0" x2="0.428081" y2="0.428629" gradientTransform="matrix(13.677411,17.195478,-17.31758,13.289762,26.054459,2.028864)">
<stop offset="0" style="stop-color:rgb(32.156863%,80.784314%,38.823529%);stop-opacity:1;"/>
<stop offset="1" style="stop-color:rgb(31.764706%,63.529412%,33.72549%);stop-opacity:1;"/>
</linearGradient>
<linearGradient id="linear2" gradientUnits="userSpaceOnUse" x1="0.5" y1="0" x2="0.5" y2="0.588112" gradientTransform="matrix(12.706949,1.532517,-2.753838,22.030014,12.261725,-1.14064)">
<stop offset="0" style="stop-color:rgb(54.117647%,91.372549%,61.176471%);stop-opacity:1;"/>
<stop offset="1" style="stop-color:rgb(32.156863%,80.784314%,38.823529%);stop-opacity:1;"/>
</linearGradient>
<linearGradient id="linear3" gradientUnits="userSpaceOnUse" x1="0.513776" y1="0.174726" x2="0.445847" y2="1" gradientTransform="matrix(30.195312,0,0,32.8125,0,14.1875)">
<stop offset="0" style="stop-color:rgb(100%,89.803922%,42.352941%);stop-opacity:1;"/>
<stop offset="1" style="stop-color:rgb(100%,77.647059%,22.745098%);stop-opacity:1;"/>
</linearGradient>
</defs>
<g id="surface1">
<path style=" stroke:none;fill-rule:evenodd;fill:url(#linear0);" d="M 14.605469 22.824219 C 17.84375 19.796875 16.855469 16.046875 13.921875 11.507812 C 10.992188 6.964844 5.089844 5.351562 3.988281 6.382812 C 2.886719 7.414062 2.644531 14.78125 5.574219 19.320312 C 8.507812 23.859375 11.367188 25.855469 14.605469 22.824219 Z M 14.605469 22.824219 "/>
<path style=" stroke:none;fill-rule:evenodd;fill:url(#linear1);" d="M 17.40625 23.242188 C 19.800781 26.953125 23.003906 25.597656 26.964844 21.886719 C 30.929688 18.179688 32.574219 11.074219 31.757812 9.8125 C 30.941406 8.550781 24.753906 8.613281 20.789062 12.324219 C 16.828125 16.03125 15.011719 19.535156 17.40625 23.242188 Z M 17.40625 23.242188 "/>
<path style=" stroke:none;fill-rule:evenodd;fill:url(#linear2);" d="M 16.097656 21.203125 C 20.074219 21.683594 21.636719 18.074219 22.367188 12.242188 C 23.09375 6.40625 20.089844 0.242188 18.738281 0.078125 C 17.382812 -0.0859375 12.839844 5.171875 12.109375 11.003906 C 11.382812 16.835938 12.121094 20.722656 16.097656 21.203125 Z M 16.097656 21.203125 "/>
<path style=" stroke:none;fill-rule:evenodd;fill:url(#linear3);" d="M 15.09375 47 C 23.433594 47 30.195312 44.621094 30.195312 33.832031 C 30.195312 23.042969 23.433594 14.1875 15.09375 14.1875 C 6.757812 14.1875 0 23.042969 0 33.832031 C 0 44.621094 6.757812 47 15.09375 47 Z M 15.09375 47 "/>
<path style=" stroke:none;fill-rule:evenodd;fill:rgb(91.764706%,67.843137%,80%);fill-opacity:1;" d="M 24.878906 30.644531 C 24.878906 30.097656 23.914062 29.660156 22.722656 29.660156 C 21.53125 29.660156 20.5625 30.097656 20.5625 30.644531 C 20.5625 31.1875 21.53125 31.628906 22.722656 31.628906 C 23.914062 31.628906 24.878906 31.1875 24.878906 30.644531 Z M 24.878906 30.644531 "/>
<path style=" stroke:none;fill-rule:evenodd;fill:rgb(91.764706%,67.843137%,80%);fill-opacity:1;" d="M 9.011719 30.3125 C 9.078125 29.769531 8.175781 29.21875 6.992188 29.074219 C 5.8125 28.933594 4.796875 29.253906 4.730469 29.792969 C 4.664062 30.335938 5.566406 30.886719 6.75 31.03125 C 7.929688 31.171875 8.945312 30.851562 9.011719 30.3125 Z M 9.011719 30.3125 "/>
<path style="fill:none;stroke-width:6;stroke-linecap:round;stroke-linejoin:round;stroke:rgb(0%,0%,0%);stroke-opacity:1;stroke-miterlimit:4;" d="M 73.100602 58.255767 C 79.831806 63.182925 87.410162 64.929489 95.837746 63.53505 C 104.263256 62.10102 110.341488 58.288989 114.107182 52.017738 " transform="matrix(-0.100176,0.00515679,0.00525,0.0983975,23.493646,24.183785)"/>
<path style=" stroke:none;fill-rule:evenodd;fill:rgb(0%,0%,0%);fill-opacity:1;" d="M 8.125 25.167969 C 8.71875 25.148438 9.265625 25.363281 9.667969 25.734375 C 10.074219 26.105469 10.332031 26.625 10.355469 27.210938 C 10.375 27.792969 10.152344 28.332031 9.777344 28.730469 C 9.398438 29.125 8.871094 29.378906 8.273438 29.402344 C 7.679688 29.421875 7.132812 29.203125 6.726562 28.832031 C 6.324219 28.464844 6.0625 27.941406 6.042969 27.359375 C 6.023438 26.773438 6.246094 26.234375 6.621094 25.839844 C 6.996094 25.441406 7.527344 25.1875 8.125 25.167969 Z M 8.125 25.167969 "/>
<path style=" stroke:none;fill-rule:evenodd;fill:rgb(100%,100%,100%);fill-opacity:1;" d="M 8.238281 26.9375 C 8.222656 26.558594 7.898438 26.257812 7.511719 26.273438 C 7.125 26.285156 6.820312 26.605469 6.832031 26.984375 C 6.847656 27.367188 7.171875 27.664062 7.558594 27.652344 C 7.945312 27.636719 8.25 27.320312 8.238281 26.9375 Z M 8.238281 26.9375 "/>
<path style=" stroke:none;fill-rule:evenodd;fill:rgb(0%,0%,0%);fill-opacity:1;" d="M 21.191406 25.703125 C 21.785156 25.683594 22.335938 25.902344 22.738281 26.273438 C 23.140625 26.640625 23.402344 27.164062 23.421875 27.746094 C 23.441406 28.332031 23.21875 28.871094 22.84375 29.265625 C 22.46875 29.664062 21.9375 29.917969 21.34375 29.9375 C 20.746094 29.960938 20.199219 29.742188 19.796875 29.371094 C 19.390625 29 19.132812 28.480469 19.113281 27.894531 C 19.089844 27.3125 19.3125 26.773438 19.691406 26.378906 C 20.066406 25.980469 20.597656 25.726562 21.191406 25.703125 Z M 21.191406 25.703125 "/>
<path style="fill-rule:nonzero;fill:rgb(100%,100%,100%);fill-opacity:1;stroke-width:3;stroke-linecap:butt;stroke-linejoin:miter;stroke:rgb(100%,100%,100%);stroke-opacity:1;stroke-miterlimit:4;" d="M 135.989432 24.48264 C 135.996141 34.716865 144.272916 42.996218 154.481546 42.996741 C 164.729092 42.995905 173.012671 34.733278 173.005962 24.499053 C 172.999252 14.264828 164.722477 5.985475 154.513847 5.984952 C 144.266301 5.985789 135.984106 14.288035 135.989432 24.48264 Z M 129.989341 24.493826 C 129.984545 10.967053 140.978812 -0.00835057 154.499513 -0.00448252 C 168.020213 -0.000614465 179.001257 10.961095 179.006053 24.487868 C 179.010848 38.014641 168.016581 48.990044 154.495881 48.986176 C 140.97518 48.982308 129.994136 38.020599 129.989341 24.493826 Z M 129.989341 24.493826 " transform="matrix(-0.100252,0.00343873,0.00350089,0.0984725,23.602239,24.340252)"/>
<path style="fill-rule:nonzero;fill:rgb(100%,100%,100%);fill-opacity:1;stroke-width:3;stroke-linecap:butt;stroke-linejoin:miter;stroke:rgb(100%,100%,100%);stroke-opacity:1;stroke-miterlimit:4;" d="M 6.003975 34.496079 C 6.010685 44.730303 14.28746 53.009657 24.49609 53.010179 C 34.704719 53.010702 42.986915 44.708455 42.981589 34.51385 C 43.013796 24.278266 34.698104 16.000272 24.489474 15.99975 C 14.280845 15.999227 5.998649 24.301474 6.003975 34.496079 Z M 0.00388414 34.507264 C -0.000911237 20.980491 10.954439 10.006447 24.514056 10.008956 C 38.034757 10.012824 49.015801 20.974533 48.98168 34.502665 C 48.986475 48.029438 38.031125 59.003482 24.510424 58.999614 C 10.950807 58.997105 0.00867951 48.034037 0.00388414 34.507264 Z M 0.00388414 34.507264 " transform="matrix(-0.100252,0.00343873,0.00350089,0.0984725,23.602239,24.340252)"/>
<path style=" stroke:none;fill-rule:evenodd;fill:rgb(100%,100%,100%);fill-opacity:1;" d="M 21.304688 27.476562 C 21.292969 27.09375 20.964844 26.796875 20.578125 26.808594 C 20.191406 26.824219 19.886719 27.144531 19.902344 27.523438 C 19.914062 27.902344 20.238281 28.203125 20.628906 28.1875 C 21.015625 28.175781 21.316406 27.855469 21.304688 27.476562 Z M 21.304688 27.476562 "/>
<path style="fill:none;stroke-width:11;stroke-linecap:round;stroke-linejoin:miter;stroke:rgb(92.54902%,71.764706%,19.607843%);stroke-opacity:1;stroke-miterlimit:4;" d="M 70.487183 377.508062 L 144.512939 454.497257 " transform="matrix(0.100313,0,0,0.0985325,-3.410658,-2.36478)"/>
<path style="fill:none;stroke-width:11;stroke-linecap:round;stroke-linejoin:miter;stroke:rgb(92.54902%,71.764706%,19.607843%);stroke-opacity:1;stroke-miterlimit:4;" d="M 134.505249 386.507314 L 87.50415 436.498753 " transform="matrix(0.100313,0,0,0.0985325,-3.410658,-2.36478)"/>
<path style="fill:none;stroke-width:11;stroke-linecap:round;stroke-linejoin:miter;stroke:rgb(92.54902%,71.764706%,19.607843%);stroke-opacity:1;stroke-miterlimit:4;" d="M 0.490112 0.508062 L 74.515869 77.497257 " transform="matrix(-0.100313,0,0,0.0985325,26.482759,34.781971)"/>
<path style="fill:none;stroke-width:11;stroke-linecap:round;stroke-linejoin:miter;stroke:rgb(92.54902%,71.764706%,19.607843%);stroke-opacity:1;stroke-miterlimit:4;" d="M 64.508179 9.507314 L 17.50708 59.498753 " transform="matrix(-0.100313,0,0,0.0985325,26.482759,34.781971)"/>
<path style="fill:none;stroke-width:11;stroke-linecap:round;stroke-linejoin:miter;stroke:rgb(100%,78.039216%,23.137255%);stroke-opacity:1;stroke-miterlimit:4;" d="M 0.513381 0.511108 L 49.513713 49.498169 " transform="matrix(0,0.0985325,-0.100313,0,18.15674,18.031447)"/>
<path style="fill:none;stroke-width:11;stroke-linecap:round;stroke-linejoin:miter;stroke:rgb(100%,78.039216%,23.137255%);stroke-opacity:1;stroke-miterlimit:4;" d="M 0.486287 10.518799 L 49.486619 59.505859 " transform="matrix(0,-0.0985325,-0.100313,0,18.15674,22.958071)"/>
</g>
</svg>
