<?xml version="1.0" encoding="UTF-8"?>
<svg xmlns="http://www.w3.org/2000/svg" xmlns:xlink="http://www.w3.org/1999/xlink" width="32px" height="32px" viewBox="0 0 32 31" version="1.1">
<defs>
<linearGradient id="linear0" gradientUnits="userSpaceOnUse" x1="6.00017" y1="32.9999" x2="235" y2="344" gradientTransform="matrix(0.0780488,0,0,0.0767327,0,0)">
<stop offset="0" style="stop-color:rgb(25.490196%,81.960784%,100%);stop-opacity:1;"/>
<stop offset="1" style="stop-color:rgb(74.117647%,20.392157%,99.607843%);stop-opacity:1;"/>
</linearGradient>
<linearGradient id="linear1" gradientUnits="userSpaceOnUse" x1="194.651" y1="8.81818" x2="236.076" y2="292.989" gradientTransform="matrix(0.0780488,0,0,0.0767327,0,0)">
<stop offset="0" style="stop-color:rgb(100%,91.764706%,51.372549%);stop-opacity:1;"/>
<stop offset="0.0833333" style="stop-color:rgb(100%,86.666667%,20.784314%);stop-opacity:1;"/>
<stop offset="1" style="stop-color:rgb(100%,65.882353%,0%);stop-opacity:1;"/>
</linearGradient>
</defs>
<g id="surface1">
<path style=" stroke:none;fill-rule:nonzero;fill:url(#linear0);" d="M 31.191406 4.566406 L 16.832031 29.8125 C 16.535156 30.335938 15.773438 30.339844 15.472656 29.820312 L 0.824219 4.570312 C 0.496094 4.003906 0.988281 3.320312 1.640625 3.433594 L 16.015625 5.960938 C 16.109375 5.976562 16.203125 5.976562 16.292969 5.960938 L 30.371094 3.4375 C 31.019531 3.320312 31.511719 4 31.191406 4.566406 Z M 31.191406 4.566406 "/>
<path style=" stroke:none;fill-rule:nonzero;fill:url(#linear1);" d="M 22.867188 0.121094 L 12.238281 2.167969 C 12.0625 2.203125 11.933594 2.347656 11.921875 2.523438 L 11.269531 13.375 C 11.253906 13.632812 11.492188 13.832031 11.746094 13.773438 L 14.707031 13.101562 C 14.984375 13.039062 15.234375 13.277344 15.175781 13.550781 L 14.296875 17.785156 C 14.238281 18.070312 14.511719 18.3125 14.792969 18.230469 L 16.621094 17.683594 C 16.902344 17.597656 17.175781 17.84375 17.117188 18.128906 L 15.71875 24.773438 C 15.632812 25.191406 16.195312 25.417969 16.429688 25.0625 L 16.585938 24.824219 L 25.246094 7.832031 C 25.390625 7.546875 25.140625 7.222656 24.824219 7.285156 L 21.777344 7.863281 C 21.492188 7.914062 21.246094 7.652344 21.328125 7.378906 L 23.316406 0.605469 C 23.394531 0.328125 23.152344 0.0664062 22.867188 0.121094 Z M 22.867188 0.121094 "/>
</g>
</svg>
